# xmcd
#
# Track frame offsets:
#  225
#  14942
#  33044
#  47857
#  59960
#  70780
#  81131
#  98777
#  107210
#  120341
#  133479
#  143952
#  156889
#  166614
#  180328
#  188498
#  200227
#  208084
#  220774
#  229196
#  238460
#  252255
#  261235
#  272672
#
# Disc length: 3823 seconds
#
# Revision: 0
# Processed by: cddbd v1.4PL0 Copyright (c) Steve Scherf et al.
# Submitted via: AltoMP3_Maker 3.0
#
DISCID=6e0eec18
DTITLE=Country Gentlemen - High Lonesome - Complete Starday Recordings (Disk 2)
DYEAR=1900
DGENRE=
TTITLE0=Two Little Boys
TTITLE1=Willie Roy, The Cripple Boy
TTITLE2=Sunrise
TTITLE3=Silence Or Tears
TTITLE4=Country Concert
TTITLE5=These Men Of God
TTITLE6=Down Where The Still Waters Flow
TTITLE7=Nobody's Business
TTITLE8=Copper Kettle
TTITLE9=Night Walk
TTITLE10=Home Sweet Home
TTITLE11=This Land Is Your Land
TTITLE12=My Old Kentucky Home
TTITLE13=Take This Hammer
TTITLE14=Auld Lang Syne
TTITLE15=Goodbye Katy
TTITLE16=Camptown Races
TTITLE17=Red River Valley
TTITLE18=Oh Susanna
TTITLE19=Long Journey Home
TTITLE20=500 Miles
TTITLE21=Free Little Bird
TTITLE22=Rose Connelly
TTITLE23=Blowin' In The Wind
EXTD=
EXTT0=
EXTT1=
EXTT2=
EXTT3=
EXTT4=
EXTT5=
EXTT6=
EXTT7=
EXTT8=
EXTT9=
EXTT10=
EXTT11=
EXTT12=
EXTT13=
EXTT14=
EXTT15=
EXTT16=
EXTT17=
EXTT18=
EXTT19=
EXTT20=
EXTT21=
EXTT22=
EXTT23=
PLAYORDER=
